<svg width="161" height="50" viewBox="0 0 161 50" fill="none" xmlns="http://www.w3.org/2000/svg">
<g opacity="0.3">
<mask id="mask0_375_3974" style="mask-type:luminance" maskUnits="userSpaceOnUse" x="6" y="9" width="38" height="32">
<path d="M43.0934 9.72229H6.95117V40.2778H43.0934V9.72229Z" fill="white"/>
</mask>
<g mask="url(#mask0_375_3974)">
<path d="M33.5551 24.1496H16.4902L25.0223 9.72253L33.5551 24.1496Z" fill="#FCFCFC"/>
<path d="M43.0934 40.2783H6.95117L13.8566 28.6019H36.188L43.0934 40.2783Z" fill="#FCFCFC"/>
</g>
<path d="M55.043 33.4864L61.1679 16.5138H64.4457L70.5707 33.4864H67.8192L66.2641 29.0639H59.3257L57.7944 33.4864H55.043ZM60.1391 26.7213H65.4745L62.7949 18.976L60.1391 26.7213Z" fill="white"/>
<path d="M71.395 33.4864L77.0414 24.9762L71.4428 16.5138H74.4814L78.6684 22.9682L82.7836 16.5138H85.7982L80.1996 24.9284L85.87 33.4864H82.8314L78.6205 26.9364L74.4096 33.4864H71.395Z" fill="white"/>
<path d="M88.0244 33.4864V16.5138H90.6084V33.4864H88.0244Z" fill="white"/>
<path d="M101.294 33.8688C99.6512 33.8688 98.2396 33.5182 97.0593 32.817C95.879 32.0999 94.9698 31.0799 94.3318 29.7572C93.6938 28.4344 93.3748 26.8567 93.3748 25.024C93.3748 23.1913 93.6938 21.6136 94.3318 20.2908C94.9698 18.9521 95.879 17.9242 97.0593 17.2071C98.2396 16.4899 99.6512 16.1313 101.294 16.1313C102.953 16.1313 104.373 16.4899 105.553 17.2071C106.749 17.9242 107.658 18.9521 108.28 20.2908C108.918 21.6136 109.237 23.1913 109.237 25.024C109.237 26.8567 108.918 28.4344 108.28 29.7572C107.658 31.0799 106.749 32.0999 105.553 32.817C104.373 33.5182 102.953 33.8688 101.294 33.8688ZM101.294 31.5023C102.395 31.5023 103.336 31.2473 104.117 30.7373C104.915 30.2273 105.521 29.4942 105.936 28.538C106.35 27.5659 106.558 26.3946 106.558 25.024C106.558 23.6535 106.35 22.4821 105.936 21.51C105.521 20.5378 104.915 19.7968 104.117 19.2868C103.336 18.7609 102.395 18.4979 101.294 18.4979C100.21 18.4979 99.2764 18.7609 98.4948 19.2868C97.7133 19.7968 97.1072 20.5378 96.6765 21.51C96.2618 22.4821 96.0544 23.6535 96.0544 25.024C96.0544 26.3946 96.2618 27.5659 96.6765 28.538C97.1072 29.4942 97.7133 30.2273 98.4948 30.7373C99.2764 31.2473 100.21 31.5023 101.294 31.5023Z" fill="white"/>
<path d="M111.997 33.4864V16.5138H115.538L120.586 30.4504L125.634 16.5138H129.175V33.4864H126.591V21.0558L122.022 33.4625H119.15L114.581 21.0558V33.4864H111.997Z" fill="white"/>
<path d="M138.328 33.4864V22.8785H142.291C143.507 22.8785 144.454 23.1724 145.132 23.76C145.81 24.3377 146.149 25.1445 146.149 26.1804C146.149 26.8677 145.995 27.4653 145.685 27.9733C145.376 28.4713 144.933 28.8548 144.355 29.1237C143.786 29.3827 143.099 29.5122 142.291 29.5122H139.943V33.4864H138.328ZM139.943 28.048H142.246C142.974 28.048 143.527 27.8936 143.906 27.5848C144.285 27.2661 144.474 26.798 144.474 26.1804C144.474 25.5728 144.285 25.1196 143.906 24.8208C143.527 24.512 142.974 24.3577 142.246 24.3577H139.943V28.048Z" fill="white"/>
<path d="M147.86 33.4864V25.538H149.311L149.371 27.6446L149.236 27.5998C149.346 26.8826 149.565 26.3597 149.894 26.031C150.233 25.7023 150.686 25.538 151.255 25.538H152.017V26.9573H151.255C150.856 26.9573 150.522 27.0221 150.253 27.1515C149.984 27.281 149.779 27.4802 149.64 27.7492C149.51 28.0181 149.445 28.3667 149.445 28.795V33.4864H147.86Z" fill="white"/>
<path d="M156.421 33.6657C155.664 33.6657 155.001 33.4963 154.433 33.1577C153.864 32.819 153.426 32.3359 153.117 31.7084C152.808 31.0809 152.653 30.3488 152.653 29.5122C152.653 28.6655 152.808 27.9334 153.117 27.3159C153.426 26.6983 153.864 26.2202 154.433 25.8816C155.001 25.533 155.664 25.3587 156.421 25.3587C157.179 25.3587 157.842 25.533 158.41 25.8816C158.978 26.2202 159.417 26.6983 159.726 27.3159C160.035 27.9334 160.19 28.6655 160.19 29.5122C160.19 30.3488 160.035 31.0809 159.726 31.7084C159.417 32.3359 158.978 32.819 158.41 33.1577C157.842 33.4963 157.179 33.6657 156.421 33.6657ZM156.421 32.2911C157.099 32.2911 157.623 32.0471 157.991 31.559C158.36 31.061 158.545 30.3787 158.545 29.5122C158.545 28.6456 158.36 27.9683 157.991 27.4802C157.623 26.9822 157.099 26.7332 156.421 26.7332C155.753 26.7332 155.23 26.9822 154.851 27.4802C154.482 27.9683 154.298 28.6456 154.298 29.5122C154.298 30.3787 154.482 31.061 154.851 31.559C155.23 32.0471 155.753 32.2911 156.421 32.2911Z" fill="white"/>
</g>
</svg>
