<svg width="200" height="40" viewBox="0 0 200 40" fill="none" xmlns="http://www.w3.org/2000/svg">
<g opacity="0.3" clip-path="url(#clip0_375_4013)">
<path d="M9.65874 20L5.17603 24.48L0.613281 20L5.17603 15.44L9.65874 20ZM20.6253 9.04L28.39 16.8L32.9528 12.24L20.6253 0L8.37796 12.24L12.9407 16.8L20.6253 9.04ZM36.0747 15.44L31.592 20L36.1547 24.56L40.6374 20L36.0747 15.44ZM20.6253 30.96L12.8607 23.2L8.29792 27.76L20.6253 40L32.8727 27.76L28.39 23.2L20.6253 30.96ZM20.6253 24.48L25.1881 19.92L20.6253 15.44L16.0626 20L20.6253 24.48ZM68.3341 24.96C68.3341 21.92 66.7332 20.48 64.2517 19.52C65.8526 18.64 67.1334 17.28 67.1334 14.8V14.72C67.1334 11.28 64.3317 9.04 59.929 9.04H49.6829V30.96H60.0891C65.0521 30.96 68.3341 28.96 68.3341 24.96ZM62.2504 15.6C62.2504 17.28 60.8896 17.92 58.8084 17.92H54.3257V13.28H59.1286C61.1298 13.28 62.2504 14.08 62.2504 15.6ZM63.5312 24.32C63.5312 25.92 62.2504 26.72 60.1692 26.72H54.4057V21.92H60.0091C62.4105 21.92 63.5312 22.8 63.5312 24.32ZM78.4202 30.96V9.04H73.5373V30.96H78.4202ZM104.356 30.96V9.04H99.5529V22.56L89.3068 9.04H84.8241V30.96H89.627V17.04L100.273 30.96H104.356ZM131.092 30.96L121.646 8.88H117.164L107.718 30.96H112.681L114.682 26H123.968L125.969 30.96H131.092ZM122.287 21.76H116.443L119.405 14.64L122.287 21.76ZM154.146 30.96V9.04H149.343V22.56L139.097 9.04H134.614V30.96H139.417V17.04L150.063 30.96H154.146ZM179.041 27.44L175.919 24.32C174.158 25.92 172.637 26.88 170.156 26.88C166.393 26.88 163.752 23.76 163.752 20V19.92C163.752 16.16 166.393 13.12 170.156 13.12C172.317 13.12 174.078 14.08 175.759 15.6L178.881 12.08C176.88 10.08 174.398 8.72 170.236 8.72C163.512 8.72 158.789 13.84 158.789 20.08V20C158.789 26.32 163.592 31.28 170.075 31.28C174.238 31.36 176.8 29.84 179.041 27.44ZM199.613 30.96V26.64H187.686V22H198.012V17.68H187.686V13.2H199.453V8.88H182.883V30.8L199.613 30.96Z" fill="white"/>
</g>
<defs>
<clipPath id="clip0_375_4013">
<rect width="199" height="40" fill="white" transform="translate(0.613281)"/>
</clipPath>
</defs>
</svg>
