<svg width="153" height="26" viewBox="0 0 153 26" fill="none" xmlns="http://www.w3.org/2000/svg">
<g opacity="0.3" clip-path="url(#clip0_375_3983)">
<path d="M47.6814 2.93117H39.4566V4.98686H45.4952C46.7115 4.98686 47.6814 5.97129 47.6814 7.17284V8.96797C47.6814 10.184 46.7115 11.1539 45.4952 11.1539H37.4004V9.09825H45.6255V7.04256H39.587C38.3706 7.04256 37.4004 6.05813 37.4004 4.85657V3.06147C37.4004 1.84542 38.3706 0.875488 39.587 0.875488H47.6814V2.93117Z" fill="white"/>
<path d="M57.6513 0.875488C58.8676 0.875488 59.8523 1.84542 59.8523 3.06147V8.96797C59.8523 10.184 58.8676 11.1539 57.6513 11.1539H51.3234C50.1071 11.1539 49.1367 10.184 49.1367 8.96797V3.06147C49.1367 1.84542 50.1071 0.875488 51.3234 0.875488H57.6513ZM57.7817 2.93117H51.193V9.09825H57.7817V2.93117Z" fill="white"/>
<path d="M63.5142 9.02602H71.5364V11.241H62.7181C61.9359 11.241 61.2988 10.604 61.2988 9.82225V0.788818H63.5142V9.02602Z" fill="white"/>
<path d="M81.9148 0.875488C82.8995 0.875488 83.696 1.65723 83.696 2.64164V11.1539H81.6254V7.78087H75.0368V11.1539H72.9805V2.64164C72.9805 1.65723 73.7622 0.875488 74.7469 0.875488H81.9148ZM81.6254 2.93117H75.0368V5.72518H81.6254V2.93117Z" fill="white"/>
<path d="M93.7856 0.875488H95.8562V9.82206C95.8562 10.5604 95.2478 11.1539 94.5095 11.1539H92.9165C92.4098 11.1684 91.9609 10.8933 91.7293 10.4446L87.7327 2.93117H87.1969V11.1539H85.1406V2.22182C85.1406 1.46903 85.7342 0.875488 86.4725 0.875488H88.1525C88.6448 0.875488 89.1081 1.13607 89.3397 1.58485L93.3367 9.09825H93.7856V0.875488Z" fill="white"/>
<path d="M106.237 0.875488C107.222 0.875488 108.018 1.65723 108.018 2.64164V11.1539H105.947V7.78087H99.3586V11.1539H97.3027V2.64164C97.3027 1.65723 98.0845 0.875488 99.0692 0.875488H106.237ZM105.947 2.93117H99.3586V5.72518H105.947V2.93117Z" fill="white"/>
<path d="M47.4789 16.4559H39.4566V18.5116H47.4789V20.5673H39.4566V24.6787H37.4004V14.4003H47.4789V16.4559Z" fill="white"/>
<path d="M57.4404 14.4003C58.6567 14.4003 59.6414 15.3702 59.6414 16.5862V22.4927C59.6414 23.7088 58.6567 24.6787 57.4404 24.6787H51.112C49.8957 24.6787 48.9258 23.7088 48.9258 22.4927V16.5862C48.9258 15.3702 49.8957 14.4003 51.112 14.4003H57.4404ZM57.5703 16.4559H50.9817V22.623H57.5703V16.4559Z" fill="white"/>
<path d="M69.7309 14.4003H71.8019V21.2332C71.7872 23.1442 70.2523 24.6787 68.3408 24.6787H64.5324C62.6212 24.6787 61.0859 23.1442 61.0859 21.2332V14.4003H63.1422V20.8134C63.1422 21.8123 63.9531 22.623 64.9525 22.623H67.921C68.92 22.623 69.7309 21.8123 69.7309 20.8134V14.4003Z" fill="white"/>
<path d="M81.893 14.4003H83.9636V23.3468C83.9636 24.0851 83.3557 24.6787 82.617 24.6787H81.0243C80.5172 24.6932 80.0683 24.4181 79.8367 23.9693L75.8401 16.4559H75.3043V24.6787H73.248V15.7466C73.248 14.9938 73.8421 14.4003 74.5804 14.4003H76.2603C76.7523 14.4003 77.2159 14.6608 77.4475 15.1096L81.4441 22.623H81.893V14.4003Z" fill="white"/>
<path d="M92.665 14.4003C94.5765 14.4003 96.1114 15.9492 96.1257 17.8457V21.2332C96.1114 23.1442 94.5765 24.6787 92.665 24.6787H85.4102V14.4003H92.665ZM94.0551 18.28C94.0551 17.2666 93.2442 16.4559 92.2452 16.4559H87.4664V22.623H92.2452C93.2442 22.623 94.0551 21.8123 94.0551 20.8134V18.28Z" fill="white"/>
<path d="M106.507 14.4003C107.491 14.4003 108.288 15.182 108.288 16.1664V24.6787H106.217V21.3056H99.6286V24.6787H97.5723V16.1664C97.5723 15.182 98.354 14.4003 99.3387 14.4003H106.507ZM106.217 16.4559H99.6286V19.2499H106.217V16.4559Z" fill="white"/>
<path d="M109.732 14.4003H120.013V16.4559H115.901V24.6787H113.845V16.4559H109.732V14.4003Z" fill="white"/>
<path d="M123.527 24.6787H121.471V14.4003H123.527V24.6787Z" fill="white"/>
<path d="M133.491 14.4003C134.707 14.4003 135.692 15.3702 135.692 16.5862V22.4927C135.692 23.7088 134.707 24.6787 133.491 24.6787H127.163C125.946 24.6787 124.977 23.7088 124.977 22.4927V16.5862C124.977 15.3702 125.946 14.4003 127.163 14.4003H133.491ZM133.622 16.4559H127.033V22.623H133.622V16.4559Z" fill="white"/>
<path d="M145.783 14.4003H147.854V23.3468C147.854 24.0851 147.246 24.6787 146.508 24.6787H144.915C144.408 24.6932 143.959 24.4181 143.727 23.9693L139.73 16.4559H139.195V24.6787H137.139V15.7466C137.139 14.9938 137.732 14.4003 138.471 14.4003H140.151C140.643 14.4003 141.106 14.6608 141.338 15.1096L145.334 22.623H145.783V14.4003Z" fill="white"/>
<mask id="mask0_375_3983" style="mask-type:luminance" maskUnits="userSpaceOnUse" x="0" y="1" width="27" height="24">
<path d="M26.7742 1.16504H0.189453V24.9778H26.7742V1.16504Z" fill="white"/>
</mask>
<g mask="url(#mask0_375_3983)">
<path d="M26.6372 19.9397L22.2487 24.6535C22.1533 24.7559 22.0378 24.8375 21.9096 24.8934C21.7813 24.9491 21.6429 24.9779 21.5031 24.9778H0.698938C0.59967 24.9778 0.502567 24.9488 0.419556 24.8943C0.336545 24.8397 0.271244 24.7621 0.231677 24.6709C0.19211 24.5797 0.179999 24.479 0.196833 24.381C0.213667 24.283 0.258713 24.1921 0.326436 24.1194L4.71833 19.4056C4.81348 19.3035 4.92855 19.222 5.05642 19.1663C5.18428 19.1105 5.32218 19.0816 5.46165 19.0813H26.2647C26.3639 19.0813 26.4611 19.1104 26.5441 19.1649C26.6271 19.2194 26.6924 19.297 26.732 19.3882C26.7715 19.4794 26.7836 19.5802 26.7668 19.6781C26.75 19.7761 26.7049 19.867 26.6372 19.9397ZM22.2487 10.4475C22.1533 10.3451 22.0378 10.2634 21.9096 10.2077C21.7813 10.1519 21.6429 10.1231 21.5031 10.1232H0.698938C0.59967 10.1232 0.502567 10.1522 0.419556 10.2068C0.336545 10.2613 0.271244 10.3389 0.231677 10.4301C0.19211 10.5212 0.179999 10.622 0.196833 10.72C0.213667 10.818 0.258713 10.9089 0.326436 10.9816L4.71833 15.6954C4.81348 15.7975 4.92855 15.879 5.05642 15.9347C5.18428 15.9905 5.32218 16.0195 5.46165 16.0197H26.2647C26.3639 16.0197 26.4611 15.9906 26.5441 15.9361C26.6271 15.8816 26.6924 15.804 26.732 15.7128C26.7715 15.6216 26.7836 15.5209 26.7668 15.4229C26.75 15.3249 26.7049 15.234 26.6372 15.1613L22.2487 10.4475ZM0.698938 7.06155H21.5031C21.6429 7.06159 21.7813 7.03286 21.9096 6.97704C22.0378 6.92126 22.1533 6.83963 22.2487 6.73725L26.6372 2.02343C26.7049 1.95074 26.75 1.85983 26.7668 1.76185C26.7836 1.66387 26.7715 1.5631 26.732 1.47192C26.6924 1.38074 26.6271 1.30313 26.5441 1.2486C26.4611 1.19409 26.3639 1.16504 26.2647 1.16504H5.46165C5.32218 1.16528 5.18428 1.19418 5.05642 1.24997C4.92855 1.30575 4.81348 1.38722 4.71833 1.48935L0.327568 6.20315C0.259911 6.27577 0.214885 6.36659 0.198012 6.46446C0.18114 6.56233 0.193155 6.66299 0.232583 6.75413C0.272011 6.84528 0.337138 6.9229 0.419978 6.97749C0.502817 7.03213 0.599768 7.06131 0.698938 7.06155Z" fill="white"/>
</g>
</g>
<defs>
<clipPath id="clip0_375_3983">
<rect width="152.48" height="25.0034" fill="white" transform="translate(0.189453 0.498291)"/>
</clipPath>
</defs>
</svg>
