<svg width="455" height="657" viewBox="0 0 455 657" fill="none" xmlns="http://www.w3.org/2000/svg">
<g style="mix-blend-mode:plus-lighter" filter="url(#filter0_f_388_4242)">
<path d="M26 42C26 33.1634 33.1634 26 42 26H412.67C421.507 26 428.67 33.1634 428.67 42V614.75C428.67 623.587 421.507 630.75 412.67 630.75H42C33.1634 630.75 26 623.587 26 614.75V42Z" fill="url(#paint0_radial_388_4242)"/>
</g>
<g style="mix-blend-mode:plus-lighter" filter="url(#filter1_f_388_4242)">
<path d="M26 42C26 33.1634 33.1634 26 42 26H412.67C421.507 26 428.67 33.1634 428.67 42V614.75C428.67 623.587 421.507 630.75 412.67 630.75H42C33.1634 630.75 26 623.587 26 614.75V42Z" fill="url(#paint1_radial_388_4242)"/>
</g>
<defs>
<filter id="filter0_f_388_4242" x="0" y="0" width="454.672" height="656.75" filterUnits="userSpaceOnUse" color-interpolation-filters="sRGB">
<feFlood flood-opacity="0" result="BackgroundImageFix"/>
<feBlend mode="normal" in="SourceGraphic" in2="BackgroundImageFix" result="shape"/>
<feGaussianBlur stdDeviation="13" result="effect1_foregroundBlur_388_4242"/>
</filter>
<filter id="filter1_f_388_4242" x="0" y="0" width="454.672" height="656.75" filterUnits="userSpaceOnUse" color-interpolation-filters="sRGB">
<feFlood flood-opacity="0" result="BackgroundImageFix"/>
<feBlend mode="normal" in="SourceGraphic" in2="BackgroundImageFix" result="shape"/>
<feGaussianBlur stdDeviation="13" result="effect1_foregroundBlur_388_4242"/>
</filter>
<radialGradient id="paint0_radial_388_4242" cx="0" cy="0" r="1" gradientTransform="matrix(-17.5 236.5 -215.594 146.267 214.5 25.75)" gradientUnits="userSpaceOnUse">
<stop stop-color="white"/>
<stop offset="1" stop-color="white" stop-opacity="0"/>
</radialGradient>
<radialGradient id="paint1_radial_388_4242" cx="0" cy="0" r="1" gradientTransform="matrix(-17.5 236.5 -215.594 146.267 214.5 25.75)" gradientUnits="userSpaceOnUse">
<stop stop-color="white"/>
<stop offset="1" stop-color="white" stop-opacity="0"/>
</radialGradient>
</defs>
</svg>
