<svg width="72" height="72" viewBox="0 0 72 72" fill="none" xmlns="http://www.w3.org/2000/svg">
<g opacity="0.8" filter="url(#filter0_f_33_1293)">
<circle cx="35.5492" cy="36.4451" r="11.5" transform="rotate(-6 35.5492 36.4451)" fill="white"/>
</g>
<g style="mix-blend-mode:plus-lighter">
<path fill-rule="evenodd" clip-rule="evenodd" d="M51.9463 33.7995C52.6032 40.05 52.9291 43.1747 51.1924 45.3213C49.4556 47.4679 46.3297 47.7973 40.0791 48.4542L33.4496 49.151C27.199 49.808 24.0735 50.134 21.9268 48.3972C19.7806 46.6604 19.4518 43.534 18.7949 37.2839C18.7169 36.5526 18.646 35.8619 18.581 35.2119L51.7247 31.7283C51.7951 32.3777 51.8694 33.0681 51.9463 33.7995ZM25.9916 41.9743C25.662 42.0089 25.3596 42.1733 25.1509 42.4309C24.9423 42.6885 24.8445 43.0184 24.8791 43.3481C24.9138 43.6778 25.0781 43.9801 25.3357 44.1888C25.5933 44.3973 25.9233 44.4952 26.2529 44.4606L32.8824 43.7638C33.212 43.7292 33.5145 43.5648 33.7231 43.3072C33.9317 43.0496 34.0296 42.7197 33.9949 42.39C33.9603 42.0603 33.796 41.758 33.5383 41.5493C33.2807 41.3408 32.9507 41.2429 32.6211 41.2775L25.9916 41.9743ZM36.7653 40.8419C36.4356 40.8766 36.1332 41.0409 35.9246 41.2985C35.716 41.5562 35.6181 41.886 35.6528 42.2157C35.6874 42.5454 35.8517 42.8478 36.1094 43.0564C36.367 43.265 36.6969 43.3629 37.0266 43.3282L39.5129 43.0669C39.8426 43.0323 40.1449 42.868 40.3536 42.6103C40.5622 42.3527 40.66 42.0228 40.6254 41.6931C40.5907 41.3634 40.4264 41.0611 40.1688 40.8524C39.9112 40.6438 39.5813 40.546 39.2516 40.5806L36.7653 40.8419Z" fill="#0E0F11"/>
<path d="M37.2917 21.9333C43.5419 21.2764 46.6682 20.9479 48.8134 22.6862C50.3592 23.9365 50.962 25.9078 51.4235 29.2462L18.3595 32.7214C18.1169 29.3601 18.2958 27.3065 19.5478 25.7622C21.2846 23.6155 24.4116 23.2871 30.6622 22.6301L37.2917 21.9333Z" fill="#0E0F11"/>
</g>
<g style="mix-blend-mode:plus-lighter" filter="url(#filter1_f_33_1293)">
<path fill-rule="evenodd" clip-rule="evenodd" d="M51.9463 33.7995C52.6032 40.05 52.9291 43.1747 51.1924 45.3213C49.4556 47.4679 46.3297 47.7973 40.0791 48.4542L33.4496 49.151C27.199 49.808 24.0735 50.134 21.9268 48.3972C19.7806 46.6604 19.4518 43.534 18.7949 37.2839C18.7169 36.5526 18.646 35.8619 18.581 35.2119L51.7247 31.7283C51.7951 32.3777 51.8694 33.0681 51.9463 33.7995ZM25.9916 41.9743C25.662 42.0089 25.3596 42.1733 25.1509 42.4309C24.9423 42.6885 24.8445 43.0184 24.8791 43.3481C24.9138 43.6778 25.0781 43.9801 25.3357 44.1888C25.5933 44.3973 25.9233 44.4952 26.2529 44.4606L32.8824 43.7638C33.212 43.7292 33.5145 43.5648 33.7231 43.3072C33.9317 43.0496 34.0296 42.7197 33.9949 42.39C33.9603 42.0603 33.796 41.758 33.5383 41.5493C33.2807 41.3408 32.9507 41.2429 32.6211 41.2775L25.9916 41.9743ZM36.7653 40.8419C36.4356 40.8766 36.1332 41.0409 35.9246 41.2985C35.716 41.5562 35.6181 41.886 35.6528 42.2157C35.6874 42.5454 35.8517 42.8478 36.1094 43.0564C36.367 43.265 36.6969 43.3629 37.0266 43.3282L39.5129 43.0669C39.8426 43.0323 40.1449 42.868 40.3536 42.6103C40.5622 42.3527 40.66 42.0228 40.6254 41.6931C40.5907 41.3634 40.4264 41.0611 40.1688 40.8524C39.9112 40.6438 39.5813 40.546 39.2516 40.5806L36.7653 40.8419Z" fill="url(#paint0_linear_33_1293)"/>
<path d="M37.2917 21.9333C43.5419 21.2764 46.6682 20.9479 48.8134 22.6862C50.3592 23.9365 50.962 25.9078 51.4235 29.2462L18.3595 32.7214C18.1169 29.3601 18.2958 27.3065 19.5478 25.7622C21.2846 23.6155 24.4116 23.2871 30.6622 22.6301L37.2917 21.9333Z" fill="url(#paint1_linear_33_1293)"/>
</g>
<g style="mix-blend-mode:plus-lighter">
<path fill-rule="evenodd" clip-rule="evenodd" d="M51.9463 33.7995C52.6032 40.05 52.9291 43.1747 51.1924 45.3213C49.4556 47.4679 46.3297 47.7973 40.0791 48.4542L33.4496 49.151C27.199 49.808 24.0735 50.134 21.9268 48.3972C19.7806 46.6604 19.4518 43.534 18.7949 37.2839C18.7169 36.5526 18.646 35.8619 18.581 35.2119L51.7247 31.7283C51.7951 32.3777 51.8694 33.0681 51.9463 33.7995ZM25.9916 41.9743C25.662 42.0089 25.3596 42.1733 25.1509 42.4309C24.9423 42.6885 24.8445 43.0184 24.8791 43.3481C24.9138 43.6778 25.0781 43.9801 25.3357 44.1888C25.5933 44.3973 25.9233 44.4952 26.2529 44.4606L32.8824 43.7638C33.212 43.7292 33.5145 43.5648 33.7231 43.3072C33.9317 43.0496 34.0296 42.7197 33.9949 42.39C33.9603 42.0603 33.796 41.758 33.5383 41.5493C33.2807 41.3408 32.9507 41.2429 32.6211 41.2775L25.9916 41.9743ZM36.7653 40.8419C36.4356 40.8766 36.1332 41.0409 35.9246 41.2985C35.716 41.5562 35.6181 41.886 35.6528 42.2157C35.6874 42.5454 35.8517 42.8478 36.1094 43.0564C36.367 43.265 36.6969 43.3629 37.0266 43.3282L39.5129 43.0669C39.8426 43.0323 40.1449 42.868 40.3536 42.6103C40.5622 42.3527 40.66 42.0228 40.6254 41.6931C40.5907 41.3634 40.4264 41.0611 40.1688 40.8524C39.9112 40.6438 39.5813 40.546 39.2516 40.5806L36.7653 40.8419Z" fill="url(#paint2_linear_33_1293)"/>
<path d="M37.2917 21.9333C43.5419 21.2764 46.6682 20.9479 48.8134 22.6862C50.3592 23.9365 50.962 25.9078 51.4235 29.2462L18.3595 32.7214C18.1169 29.3601 18.2958 27.3065 19.5478 25.7622C21.2846 23.6155 24.4116 23.2871 30.6622 22.6301L37.2917 21.9333Z" fill="url(#paint3_linear_33_1293)"/>
</g>
<defs>
<filter id="filter0_f_33_1293" x="0.0483398" y="0.944092" width="71.002" height="71.002" filterUnits="userSpaceOnUse" color-interpolation-filters="sRGB">
<feFlood flood-opacity="0" result="BackgroundImageFix"/>
<feBlend mode="normal" in="SourceGraphic" in2="BackgroundImageFix" result="shape"/>
<feGaussianBlur stdDeviation="12" result="effect1_foregroundBlur_33_1293"/>
</filter>
<filter id="filter1_f_33_1293" x="17.2666" y="20.4043" width="36.2075" height="30.2749" filterUnits="userSpaceOnUse" color-interpolation-filters="sRGB">
<feFlood flood-opacity="0" result="BackgroundImageFix"/>
<feBlend mode="normal" in="SourceGraphic" in2="BackgroundImageFix" result="shape"/>
<feGaussianBlur stdDeviation="0.5" result="effect1_foregroundBlur_33_1293"/>
</filter>
<linearGradient id="paint0_linear_33_1293" x1="33.9767" y1="22.2817" x2="36.7642" y2="48.8026" gradientUnits="userSpaceOnUse">
<stop stop-color="white"/>
<stop offset="1" stop-color="white" stop-opacity="0.2"/>
</linearGradient>
<linearGradient id="paint1_linear_33_1293" x1="33.9767" y1="22.2817" x2="36.7642" y2="48.8026" gradientUnits="userSpaceOnUse">
<stop stop-color="white"/>
<stop offset="1" stop-color="white" stop-opacity="0.2"/>
</linearGradient>
<linearGradient id="paint2_linear_33_1293" x1="33.9767" y1="22.2817" x2="36.7642" y2="48.8026" gradientUnits="userSpaceOnUse">
<stop stop-color="white"/>
<stop offset="1" stop-color="white" stop-opacity="0.2"/>
</linearGradient>
<linearGradient id="paint3_linear_33_1293" x1="33.9767" y1="22.2817" x2="36.7642" y2="48.8026" gradientUnits="userSpaceOnUse">
<stop stop-color="white"/>
<stop offset="1" stop-color="white" stop-opacity="0.2"/>
</linearGradient>
</defs>
</svg>
