<svg width="16" height="16" viewBox="0 0 16 16" fill="none" xmlns="http://www.w3.org/2000/svg">
<path d="M7.29992 8.95318L6.10258 7.75985C6.04036 7.69762 5.96458 7.66429 5.87525 7.65985C5.78547 7.6554 5.70392 7.69007 5.63058 7.76385C5.55947 7.83496 5.52392 7.91362 5.52392 7.99985C5.52392 8.08607 5.55947 8.16474 5.63058 8.23585L6.92258 9.52785C7.03058 9.6354 7.15636 9.68918 7.29992 9.68918C7.44347 9.68918 7.56925 9.6354 7.67725 9.52785L10.3692 6.83585C10.4341 6.77096 10.4681 6.69451 10.4712 6.60651C10.4744 6.51807 10.4404 6.43718 10.3692 6.36385C10.2959 6.29051 10.2166 6.25318 10.1312 6.25185C10.0459 6.25051 9.9668 6.28651 9.89392 6.35985L7.29992 8.95318ZM5.77992 13.7438L4.90258 12.2772L3.24858 11.9278C3.11614 11.9034 3.01058 11.8323 2.93191 11.7145C2.85325 11.5972 2.8208 11.4723 2.83458 11.3398L2.99258 9.63585L1.87058 8.35585C1.77636 8.2594 1.72925 8.14074 1.72925 7.99985C1.72925 7.85896 1.77636 7.74029 1.87058 7.64385L2.99258 6.36385L2.83458 4.66051C2.82125 4.52762 2.85369 4.40251 2.93191 4.28518C3.01058 4.16785 3.11614 4.09674 3.24858 4.07185L4.90192 3.72318L5.77925 2.25651C5.85125 2.1374 5.94792 2.05518 6.06925 2.00985C6.19058 1.96407 6.31614 1.97007 6.44592 2.02785L7.99992 2.68451L9.55325 2.02785C9.68347 1.97007 9.80925 1.96407 9.93058 2.00985C10.0519 2.05518 10.1486 2.1374 10.2206 2.25651L11.0972 3.72318L12.7513 4.07185C12.8837 4.09674 12.9892 4.16785 13.0679 4.28518C13.1466 4.40251 13.179 4.52762 13.1652 4.66051L13.0079 6.36385L14.1292 7.64385C14.2235 7.74029 14.2706 7.85896 14.2706 7.99985C14.2706 8.14074 14.2235 8.25962 14.1292 8.35651L13.0079 9.63585L13.1652 11.3392C13.1786 11.4721 13.1461 11.5972 13.0679 11.7145C12.9892 11.8323 12.8837 11.9034 12.7513 11.9278L11.0979 12.2772L10.2206 13.7438C10.1486 13.8625 10.0519 13.9447 9.93058 13.9905C9.80925 14.0363 9.68369 14.0301 9.55392 13.9718L7.99992 13.3152L6.44658 13.9718C6.31636 14.0296 6.19058 14.0356 6.06925 13.9898C5.94792 13.9445 5.85125 13.8623 5.77925 13.7432" fill="white"/>
</svg>
